<mxfile host="Electron" modified="2023-10-17T08:27:58.737Z" agent="Mozilla/5.0 (Windows NT 10.0; Win64; x64) AppleWebKit/537.36 (KHTML, like Gecko) draw.io/22.0.2 Chrome/114.0.5735.289 Electron/25.8.4 Safari/537.36" etag="cPwKIMyh3qxOpHokr0du" version="22.0.2" type="device">
  <diagram name="Page-1" id="6QnPKunHWWTYDzPAlQC8">
    <mxGraphModel dx="1313" dy="776" grid="1" gridSize="10" guides="1" tooltips="1" connect="1" arrows="1" fold="1" page="1" pageScale="1" pageWidth="1100" pageHeight="850" math="0" shadow="0">
      <root>
        <mxCell id="0" />
        <mxCell id="1" parent="0" />
        <mxCell id="0F25xtsy0Oq9jyW9tQAI-15" value="" style="group;fontSize=25;" parent="1" vertex="1" connectable="0">
          <mxGeometry x="170" y="53" width="890" height="1140" as="geometry" />
        </mxCell>
        <mxCell id="0F25xtsy0Oq9jyW9tQAI-1" value="" style="rounded=0;whiteSpace=wrap;html=1;" parent="0F25xtsy0Oq9jyW9tQAI-15" vertex="1">
          <mxGeometry width="890" height="1140" as="geometry" />
        </mxCell>
        <mxCell id="0F25xtsy0Oq9jyW9tQAI-13" value="&lt;font style=&quot;font-size: 25px;&quot;&gt;User&lt;/font&gt;" style="swimlane;whiteSpace=wrap;html=1;startSize=23;fontSize=25;" parent="0F25xtsy0Oq9jyW9tQAI-15" vertex="1">
          <mxGeometry width="437.05" height="1140" as="geometry" />
        </mxCell>
        <mxCell id="0F25xtsy0Oq9jyW9tQAI-32" value="Enter Email and Password&amp;nbsp;" style="rounded=1;whiteSpace=wrap;html=1;fontSize=24;fillColor=#76608a;fontColor=#ffffff;strokeColor=#432D57;" parent="0F25xtsy0Oq9jyW9tQAI-13" vertex="1">
          <mxGeometry x="103.16" y="320.19" width="230.74" height="70" as="geometry" />
        </mxCell>
        <mxCell id="0F25xtsy0Oq9jyW9tQAI-14" value="&lt;font style=&quot;font-size: 25px;&quot;&gt;System&lt;/font&gt;" style="swimlane;whiteSpace=wrap;html=1;fontSize=25;" parent="0F25xtsy0Oq9jyW9tQAI-15" vertex="1">
          <mxGeometry x="437.05" width="452.95" height="1140" as="geometry" />
        </mxCell>
        <mxCell id="0F25xtsy0Oq9jyW9tQAI-16" value="" style="ellipse;whiteSpace=wrap;html=1;aspect=fixed;fillColor=#050505;fontSize=18;" parent="0F25xtsy0Oq9jyW9tQAI-14" vertex="1">
          <mxGeometry x="183.27868852459017" y="42.631578947368425" width="40" height="40" as="geometry" />
        </mxCell>
        <mxCell id="0F25xtsy0Oq9jyW9tQAI-67" value="No" style="text;html=1;strokeColor=none;fillColor=none;align=center;verticalAlign=middle;whiteSpace=wrap;rounded=0;fontSize=20;" parent="0F25xtsy0Oq9jyW9tQAI-14" vertex="1">
          <mxGeometry x="280.30000000000007" y="590" width="60" height="30" as="geometry" />
        </mxCell>
        <mxCell id="0F25xtsy0Oq9jyW9tQAI-149" value="&lt;span style=&quot;font-size: 25px;&quot;&gt;Login Successfully&lt;/span&gt;" style="rounded=1;whiteSpace=wrap;html=1;fillColor=#76608a;fontColor=#ffffff;strokeColor=#432D57;fontSize=25;" parent="0F25xtsy0Oq9jyW9tQAI-14" vertex="1">
          <mxGeometry x="32.95" y="951" width="157.05" height="60" as="geometry" />
        </mxCell>
        <mxCell id="0F25xtsy0Oq9jyW9tQAI-151" value="" style="ellipse;html=1;shape=endState;fillColor=#000000;strokeColor=#ff0000;" parent="0F25xtsy0Oq9jyW9tQAI-14" vertex="1">
          <mxGeometry x="295.45000000000005" y="1060" width="40" height="40" as="geometry" />
        </mxCell>
        <mxCell id="0F25xtsy0Oq9jyW9tQAI-63" value="&lt;span style=&quot;font-size: 22px;&quot;&gt;Display &quot;Invalid Email &lt;br style=&quot;font-size: 22px;&quot;&gt;and Password&quot;&lt;/span&gt;" style="rounded=1;whiteSpace=wrap;html=1;fontSize=22;fillColor=#76608a;fontColor=#ffffff;strokeColor=#432D57;" parent="0F25xtsy0Oq9jyW9tQAI-14" vertex="1">
          <mxGeometry x="223.28" y="680" width="193.07" height="80" as="geometry" />
        </mxCell>
        <mxCell id="0F25xtsy0Oq9jyW9tQAI-62" value="&lt;span style=&quot;font-size: 22px;&quot;&gt;&quot;Login Successful&quot;, Welcome to home page&lt;/span&gt;" style="rounded=1;whiteSpace=wrap;html=1;fontSize=22;fillColor=#76608a;fontColor=#ffffff;strokeColor=#432D57;" parent="0F25xtsy0Oq9jyW9tQAI-14" vertex="1">
          <mxGeometry x="10.28000000000003" y="680" width="202.38" height="80" as="geometry" />
        </mxCell>
        <mxCell id="0F25xtsy0Oq9jyW9tQAI-159" value="Forgot Password" style="text;html=1;strokeColor=none;fillColor=none;align=center;verticalAlign=middle;whiteSpace=wrap;rounded=0;fontSize=20;" parent="0F25xtsy0Oq9jyW9tQAI-14" vertex="1">
          <mxGeometry x="183.27999999999997" y="779" width="60" height="30" as="geometry" />
        </mxCell>
        <mxCell id="0F25xtsy0Oq9jyW9tQAI-22" value="" style="endArrow=classic;html=1;rounded=0;exitX=0;exitY=0.5;exitDx=0;exitDy=0;" parent="0F25xtsy0Oq9jyW9tQAI-15" source="0F25xtsy0Oq9jyW9tQAI-20" target="0F25xtsy0Oq9jyW9tQAI-23" edge="1">
          <mxGeometry width="50" height="50" relative="1" as="geometry">
            <mxPoint x="211.47540983606552" y="319.7368421052632" as="sourcePoint" />
            <mxPoint x="281.9672131147541" y="266.44736842105266" as="targetPoint" />
          </mxGeometry>
        </mxCell>
        <mxCell id="0F25xtsy0Oq9jyW9tQAI-20" value="&lt;font style=&quot;font-size: 23px;&quot;&gt;Login or &lt;br style=&quot;font-size: 23px;&quot;&gt;Register&lt;/font&gt;" style="rhombus;whiteSpace=wrap;html=1;fillColor=#FFE599;fontStyle=1;fontSize=23;" parent="0F25xtsy0Oq9jyW9tQAI-15" vertex="1">
          <mxGeometry x="555.1197619047618" y="117.23684210526316" width="171.36523809523808" height="95.92105263157896" as="geometry" />
        </mxCell>
        <mxCell id="0F25xtsy0Oq9jyW9tQAI-18" value="" style="endArrow=classic;html=1;rounded=0;exitX=0.5;exitY=1;exitDx=0;exitDy=0;entryX=0.5;entryY=0;entryDx=0;entryDy=0;" parent="0F25xtsy0Oq9jyW9tQAI-15" source="0F25xtsy0Oq9jyW9tQAI-16" target="0F25xtsy0Oq9jyW9tQAI-20" edge="1">
          <mxGeometry width="50" height="50" relative="1" as="geometry">
            <mxPoint x="197.37704918032787" y="373.0263157894737" as="sourcePoint" />
            <mxPoint x="627.3770491803278" y="127.89473684210527" as="targetPoint" />
          </mxGeometry>
        </mxCell>
        <mxCell id="0F25xtsy0Oq9jyW9tQAI-27" value="&lt;font style=&quot;font-size: 24px;&quot;&gt;Validates Information&lt;/font&gt;" style="rounded=1;whiteSpace=wrap;html=1;fontSize=24;fillColor=#76608a;fontColor=#ffffff;strokeColor=#432D57;" parent="0F25xtsy0Oq9jyW9tQAI-15" vertex="1">
          <mxGeometry x="458.09" y="239.01" width="179.29" height="54.87" as="geometry" />
        </mxCell>
        <mxCell id="0F25xtsy0Oq9jyW9tQAI-28" value="" style="endArrow=classic;html=1;rounded=0;exitX=1;exitY=0.5;exitDx=0;exitDy=0;entryX=0.5;entryY=0;entryDx=0;entryDy=0;" parent="0F25xtsy0Oq9jyW9tQAI-15" source="0F25xtsy0Oq9jyW9tQAI-20" target="0F25xtsy0Oq9jyW9tQAI-26" edge="1">
          <mxGeometry width="50" height="50" relative="1" as="geometry">
            <mxPoint x="399.2857142857143" y="266.44736842105266" as="sourcePoint" />
            <mxPoint x="450.4761904761904" y="213.15789473684214" as="targetPoint" />
            <Array as="points">
              <mxPoint x="752.4999999999999" y="165.19736842105266" />
            </Array>
          </mxGeometry>
        </mxCell>
        <mxCell id="0F25xtsy0Oq9jyW9tQAI-29" value="" style="endArrow=classic;html=1;rounded=0;exitX=0.5;exitY=1;exitDx=0;exitDy=0;entryX=0;entryY=0.5;entryDx=0;entryDy=0;" parent="0F25xtsy0Oq9jyW9tQAI-15" source="0F25xtsy0Oq9jyW9tQAI-23" target="0F25xtsy0Oq9jyW9tQAI-27" edge="1">
          <mxGeometry width="50" height="50" relative="1" as="geometry">
            <mxPoint x="399.2857142857143" y="266.44736842105266" as="sourcePoint" />
            <mxPoint x="450.4761904761904" y="213.15789473684214" as="targetPoint" />
            <Array as="points">
              <mxPoint x="218.07142857142856" y="266.44736842105266" />
            </Array>
          </mxGeometry>
        </mxCell>
        <mxCell id="0F25xtsy0Oq9jyW9tQAI-30" value="&lt;span style=&quot;font-size: 24px;&quot;&gt;Provide your email and Password&lt;/span&gt;" style="rounded=1;whiteSpace=wrap;html=1;fontSize=24;fillColor=#76608a;fontColor=#ffffff;strokeColor=#432D57;" parent="0F25xtsy0Oq9jyW9tQAI-15" vertex="1">
          <mxGeometry x="445.09" y="325.39" width="206.91" height="59.61" as="geometry" />
        </mxCell>
        <mxCell id="0F25xtsy0Oq9jyW9tQAI-33" value="" style="endArrow=classic;html=1;rounded=0;exitX=0;exitY=0.5;exitDx=0;exitDy=0;entryX=1;entryY=0.5;entryDx=0;entryDy=0;" parent="0F25xtsy0Oq9jyW9tQAI-15" source="0F25xtsy0Oq9jyW9tQAI-30" target="0F25xtsy0Oq9jyW9tQAI-32" edge="1">
          <mxGeometry width="50" height="50" relative="1" as="geometry">
            <mxPoint x="399.2857142857143" y="266.44736842105266" as="sourcePoint" />
            <mxPoint x="450.4761904761904" y="213.15789473684214" as="targetPoint" />
          </mxGeometry>
        </mxCell>
        <mxCell id="0F25xtsy0Oq9jyW9tQAI-34" value="&lt;span style=&quot;font-size: 24px;&quot;&gt;Save details in the Database&lt;/span&gt;" style="rounded=1;whiteSpace=wrap;html=1;fontSize=24;fillColor=#76608a;fontColor=#ffffff;strokeColor=#432D57;" parent="0F25xtsy0Oq9jyW9tQAI-15" vertex="1">
          <mxGeometry x="460.71" y="410" width="189.29" height="54.34" as="geometry" />
        </mxCell>
        <mxCell id="0F25xtsy0Oq9jyW9tQAI-35" value="" style="endArrow=classic;html=1;rounded=0;exitX=1;exitY=0.5;exitDx=0;exitDy=0;entryX=0.5;entryY=1;entryDx=0;entryDy=0;" parent="0F25xtsy0Oq9jyW9tQAI-15" source="0F25xtsy0Oq9jyW9tQAI-34" target="0F25xtsy0Oq9jyW9tQAI-26" edge="1">
          <mxGeometry width="50" height="50" relative="1" as="geometry">
            <mxPoint x="399.2857142857143" y="266.44736842105266" as="sourcePoint" />
            <mxPoint x="450.4761904761904" y="213.15789473684214" as="targetPoint" />
            <Array as="points">
              <mxPoint x="752.4999999999999" y="436.97368421052636" />
            </Array>
          </mxGeometry>
        </mxCell>
        <mxCell id="0F25xtsy0Oq9jyW9tQAI-38" value="" style="endArrow=classic;html=1;rounded=0;exitX=0.75;exitY=1;exitDx=0;exitDy=0;entryX=1;entryY=0.5;entryDx=0;entryDy=0;" parent="0F25xtsy0Oq9jyW9tQAI-15" source="0F25xtsy0Oq9jyW9tQAI-26" target="0F25xtsy0Oq9jyW9tQAI-36" edge="1">
          <mxGeometry width="50" height="50" relative="1" as="geometry">
            <mxPoint x="737.1428571428571" y="175.85526315789474" as="sourcePoint" />
            <mxPoint x="762.7380952380952" y="255.78947368421055" as="targetPoint" />
            <Array as="points">
              <mxPoint x="796" y="491" />
            </Array>
          </mxGeometry>
        </mxCell>
        <mxCell id="0F25xtsy0Oq9jyW9tQAI-26" value="&lt;font style=&quot;font-size: 24px;&quot;&gt;Display Login Form&lt;/font&gt;" style="rounded=1;whiteSpace=wrap;html=1;fontSize=24;fillColor=#76608a;fontColor=#ffffff;strokeColor=#432D57;" parent="0F25xtsy0Oq9jyW9tQAI-15" vertex="1">
          <mxGeometry x="665.48" y="239.01" width="174.52" height="54.87" as="geometry" />
        </mxCell>
        <mxCell id="0F25xtsy0Oq9jyW9tQAI-61" value="" style="endArrow=classic;html=1;rounded=0;exitX=0.5;exitY=1;exitDx=0;exitDy=0;entryX=0.5;entryY=0;entryDx=0;entryDy=0;" parent="0F25xtsy0Oq9jyW9tQAI-15" source="0F25xtsy0Oq9jyW9tQAI-36" target="0F25xtsy0Oq9jyW9tQAI-60" edge="1">
          <mxGeometry width="50" height="50" relative="1" as="geometry">
            <mxPoint x="390" y="530" as="sourcePoint" />
            <mxPoint x="440" y="480" as="targetPoint" />
            <Array as="points">
              <mxPoint x="220" y="550" />
              <mxPoint x="641" y="550" />
            </Array>
          </mxGeometry>
        </mxCell>
        <mxCell id="0F25xtsy0Oq9jyW9tQAI-60" value="&lt;span style=&quot;font-size: 23px;&quot;&gt;Login &lt;br&gt;&amp;nbsp; valid ?&lt;/span&gt;" style="rhombus;whiteSpace=wrap;html=1;fillColor=#FFE599;fontStyle=1;fontSize=23;" parent="0F25xtsy0Oq9jyW9tQAI-15" vertex="1">
          <mxGeometry x="563.36" y="570" width="154.88" height="100" as="geometry" />
        </mxCell>
        <mxCell id="0F25xtsy0Oq9jyW9tQAI-64" value="" style="endArrow=classic;html=1;rounded=0;exitX=0;exitY=0.5;exitDx=0;exitDy=0;entryX=0.388;entryY=-0.012;entryDx=0;entryDy=0;entryPerimeter=0;" parent="0F25xtsy0Oq9jyW9tQAI-15" source="0F25xtsy0Oq9jyW9tQAI-60" target="0F25xtsy0Oq9jyW9tQAI-62" edge="1">
          <mxGeometry width="50" height="50" relative="1" as="geometry">
            <mxPoint x="390" y="650" as="sourcePoint" />
            <mxPoint x="440" y="600" as="targetPoint" />
            <Array as="points">
              <mxPoint x="528" y="620" />
            </Array>
          </mxGeometry>
        </mxCell>
        <mxCell id="0F25xtsy0Oq9jyW9tQAI-65" value="" style="endArrow=classic;html=1;rounded=0;exitX=1;exitY=0.5;exitDx=0;exitDy=0;entryX=0.652;entryY=0.032;entryDx=0;entryDy=0;entryPerimeter=0;" parent="0F25xtsy0Oq9jyW9tQAI-15" source="0F25xtsy0Oq9jyW9tQAI-60" target="0F25xtsy0Oq9jyW9tQAI-63" edge="1">
          <mxGeometry width="50" height="50" relative="1" as="geometry">
            <mxPoint x="390" y="720" as="sourcePoint" />
            <mxPoint x="440" y="670" as="targetPoint" />
            <Array as="points">
              <mxPoint x="786" y="620" />
            </Array>
          </mxGeometry>
        </mxCell>
        <mxCell id="0F25xtsy0Oq9jyW9tQAI-66" value="Yes" style="text;html=1;strokeColor=none;fillColor=none;align=center;verticalAlign=middle;whiteSpace=wrap;rounded=0;fontSize=20;" parent="0F25xtsy0Oq9jyW9tQAI-15" vertex="1">
          <mxGeometry x="517.74" y="590" width="60" height="30" as="geometry" />
        </mxCell>
        <mxCell id="0F25xtsy0Oq9jyW9tQAI-73" value="" style="endArrow=classic;html=1;rounded=0;exitX=1;exitY=0.5;exitDx=0;exitDy=0;" parent="0F25xtsy0Oq9jyW9tQAI-15" edge="1">
          <mxGeometry width="50" height="50" relative="1" as="geometry">
            <mxPoint x="833.0299999999997" y="830" as="sourcePoint" />
            <mxPoint x="840" y="266" as="targetPoint" />
            <Array as="points">
              <mxPoint x="860" y="830" />
              <mxPoint x="860" y="266" />
            </Array>
          </mxGeometry>
        </mxCell>
        <mxCell id="0F25xtsy0Oq9jyW9tQAI-106" value="&lt;span style=&quot;font-size: 24px;&quot;&gt;Enter Email Address&lt;/span&gt;" style="rounded=1;whiteSpace=wrap;html=1;fillColor=#76608a;fontColor=#ffffff;strokeColor=#432D57;fontSize=24;" parent="0F25xtsy0Oq9jyW9tQAI-15" vertex="1">
          <mxGeometry x="540" y="867.66" width="164" height="65" as="geometry" />
        </mxCell>
        <mxCell id="0F25xtsy0Oq9jyW9tQAI-107" value="" style="endArrow=classic;html=1;rounded=0;exitX=0;exitY=0.5;exitDx=0;exitDy=0;entryX=0.5;entryY=0;entryDx=0;entryDy=0;" parent="0F25xtsy0Oq9jyW9tQAI-15" source="0F25xtsy0Oq9jyW9tQAI-71" target="0F25xtsy0Oq9jyW9tQAI-106" edge="1">
          <mxGeometry width="50" height="50" relative="1" as="geometry">
            <mxPoint x="390" y="760" as="sourcePoint" />
            <mxPoint x="440" y="710" as="targetPoint" />
            <Array as="points">
              <mxPoint x="620" y="830" />
            </Array>
          </mxGeometry>
        </mxCell>
        <mxCell id="0F25xtsy0Oq9jyW9tQAI-108" value="&lt;span style=&quot;font-size: 24px;&quot;&gt;Create a New Password&lt;/span&gt;" style="rounded=1;whiteSpace=wrap;html=1;fillColor=#76608a;fontColor=#ffffff;strokeColor=#432D57;fontSize=24;" parent="0F25xtsy0Oq9jyW9tQAI-15" vertex="1">
          <mxGeometry x="445.09" y="797" width="150" height="63.69" as="geometry" />
        </mxCell>
        <mxCell id="0F25xtsy0Oq9jyW9tQAI-109" value="" style="endArrow=classic;html=1;rounded=0;exitX=0;exitY=0.5;exitDx=0;exitDy=0;entryX=0.5;entryY=1;entryDx=0;entryDy=0;" parent="0F25xtsy0Oq9jyW9tQAI-15" source="0F25xtsy0Oq9jyW9tQAI-106" target="0F25xtsy0Oq9jyW9tQAI-108" edge="1">
          <mxGeometry width="50" height="50" relative="1" as="geometry">
            <mxPoint x="667" y="840" as="sourcePoint" />
            <mxPoint x="631" y="890" as="targetPoint" />
            <Array as="points">
              <mxPoint x="520" y="900" />
            </Array>
          </mxGeometry>
        </mxCell>
        <mxCell id="0F25xtsy0Oq9jyW9tQAI-148" value="User Enter email and New Password to login" style="rounded=1;whiteSpace=wrap;html=1;fontSize=24;fillColor=#76608a;fontColor=#ffffff;strokeColor=#432D57;" parent="0F25xtsy0Oq9jyW9tQAI-15" vertex="1">
          <mxGeometry x="103.16" y="932.6600000000001" width="230.74" height="98.68" as="geometry" />
        </mxCell>
        <mxCell id="0F25xtsy0Oq9jyW9tQAI-150" value="&lt;span style=&quot;font-size: 24px;&quot;&gt;Welcome to Home page&lt;/span&gt;" style="rounded=1;whiteSpace=wrap;html=1;fillColor=#76608a;fontColor=#ffffff;strokeColor=#432D57;fontSize=24;" parent="0F25xtsy0Oq9jyW9tQAI-15" vertex="1">
          <mxGeometry x="659.47" y="952.01" width="184.53" height="59.99" as="geometry" />
        </mxCell>
        <mxCell id="0F25xtsy0Oq9jyW9tQAI-153" value="" style="endArrow=classic;html=1;rounded=0;exitX=0.5;exitY=1;exitDx=0;exitDy=0;entryX=0.5;entryY=0;entryDx=0;entryDy=0;" parent="0F25xtsy0Oq9jyW9tQAI-15" source="0F25xtsy0Oq9jyW9tQAI-150" target="0F25xtsy0Oq9jyW9tQAI-151" edge="1">
          <mxGeometry width="50" height="50" relative="1" as="geometry">
            <mxPoint x="390" y="1000" as="sourcePoint" />
            <mxPoint x="440" y="950" as="targetPoint" />
          </mxGeometry>
        </mxCell>
        <mxCell id="0F25xtsy0Oq9jyW9tQAI-154" value="" style="endArrow=classic;html=1;rounded=0;entryX=1;entryY=0.5;entryDx=0;entryDy=0;exitX=0;exitY=0.5;exitDx=0;exitDy=0;" parent="0F25xtsy0Oq9jyW9tQAI-15" source="0F25xtsy0Oq9jyW9tQAI-108" target="0F25xtsy0Oq9jyW9tQAI-147" edge="1">
          <mxGeometry width="50" height="50" relative="1" as="geometry">
            <mxPoint x="390" y="880" as="sourcePoint" />
            <mxPoint x="440" y="830" as="targetPoint" />
          </mxGeometry>
        </mxCell>
        <mxCell id="0F25xtsy0Oq9jyW9tQAI-155" value="" style="endArrow=classic;html=1;rounded=0;entryX=0.5;entryY=0;entryDx=0;entryDy=0;exitX=0.5;exitY=1;exitDx=0;exitDy=0;" parent="0F25xtsy0Oq9jyW9tQAI-15" source="0F25xtsy0Oq9jyW9tQAI-147" target="0F25xtsy0Oq9jyW9tQAI-148" edge="1">
          <mxGeometry width="50" height="50" relative="1" as="geometry">
            <mxPoint x="460" y="840" as="sourcePoint" />
            <mxPoint x="338" y="839" as="targetPoint" />
          </mxGeometry>
        </mxCell>
        <mxCell id="0F25xtsy0Oq9jyW9tQAI-156" value="" style="endArrow=classic;html=1;rounded=0;entryX=0;entryY=0.5;entryDx=0;entryDy=0;exitX=1;exitY=0.5;exitDx=0;exitDy=0;" parent="0F25xtsy0Oq9jyW9tQAI-15" source="0F25xtsy0Oq9jyW9tQAI-148" target="0F25xtsy0Oq9jyW9tQAI-149" edge="1">
          <mxGeometry width="50" height="50" relative="1" as="geometry">
            <mxPoint x="229" y="860" as="sourcePoint" />
            <mxPoint x="229" y="970" as="targetPoint" />
          </mxGeometry>
        </mxCell>
        <mxCell id="0F25xtsy0Oq9jyW9tQAI-157" value="" style="endArrow=classic;html=1;rounded=0;entryX=0;entryY=0.5;entryDx=0;entryDy=0;exitX=1;exitY=0.5;exitDx=0;exitDy=0;" parent="0F25xtsy0Oq9jyW9tQAI-15" source="0F25xtsy0Oq9jyW9tQAI-149" target="0F25xtsy0Oq9jyW9tQAI-150" edge="1">
          <mxGeometry width="50" height="50" relative="1" as="geometry">
            <mxPoint x="338" y="991" as="sourcePoint" />
            <mxPoint x="480" y="990" as="targetPoint" />
          </mxGeometry>
        </mxCell>
        <mxCell id="0F25xtsy0Oq9jyW9tQAI-160" value="" style="endArrow=classic;html=1;rounded=0;exitX=0.5;exitY=1;exitDx=0;exitDy=0;entryX=0.5;entryY=0;entryDx=0;entryDy=0;" parent="0F25xtsy0Oq9jyW9tQAI-15" source="0F25xtsy0Oq9jyW9tQAI-27" target="0F25xtsy0Oq9jyW9tQAI-30" edge="1">
          <mxGeometry width="50" height="50" relative="1" as="geometry">
            <mxPoint x="300" y="360" as="sourcePoint" />
            <mxPoint x="350" y="310" as="targetPoint" />
          </mxGeometry>
        </mxCell>
        <mxCell id="-nsHaBJH_qSOS38vNcok-1" value="" style="endArrow=classic;html=1;rounded=0;exitX=0.5;exitY=1;exitDx=0;exitDy=0;entryX=0;entryY=0.5;entryDx=0;entryDy=0;" parent="0F25xtsy0Oq9jyW9tQAI-15" source="0F25xtsy0Oq9jyW9tQAI-32" target="0F25xtsy0Oq9jyW9tQAI-34" edge="1">
          <mxGeometry width="50" height="50" relative="1" as="geometry">
            <mxPoint x="430" y="410" as="sourcePoint" />
            <mxPoint x="480" y="360" as="targetPoint" />
            <Array as="points">
              <mxPoint x="219" y="437" />
            </Array>
          </mxGeometry>
        </mxCell>
        <mxCell id="0F25xtsy0Oq9jyW9tQAI-23" value="Input Registration Form" style="rounded=1;whiteSpace=wrap;html=1;fontSize=24;fillColor=#76608a;fontColor=#ffffff;strokeColor=#432D57;" parent="0F25xtsy0Oq9jyW9tQAI-15" vertex="1">
          <mxGeometry x="103.15" y="128.57" width="230.74" height="73.26" as="geometry" />
        </mxCell>
        <mxCell id="0F25xtsy0Oq9jyW9tQAI-36" value="Enter Email and Password" style="rounded=1;whiteSpace=wrap;html=1;fontSize=24;fillColor=#76608a;fontColor=#ffffff;strokeColor=#432D57;" parent="0F25xtsy0Oq9jyW9tQAI-15" vertex="1">
          <mxGeometry x="104.15" y="457" width="230.74" height="70" as="geometry" />
        </mxCell>
        <mxCell id="0F25xtsy0Oq9jyW9tQAI-24" value="Register" style="text;html=1;strokeColor=none;fillColor=none;align=center;verticalAlign=middle;whiteSpace=wrap;rounded=0;fontSize=20;" parent="0F25xtsy0Oq9jyW9tQAI-15" vertex="1">
          <mxGeometry x="439.21999999999997" y="117.24" width="115.9" height="70" as="geometry" />
        </mxCell>
        <mxCell id="0F25xtsy0Oq9jyW9tQAI-158" value="Try Again" style="text;html=1;strokeColor=none;fillColor=none;align=center;verticalAlign=middle;whiteSpace=wrap;rounded=0;fontSize=20;" parent="0F25xtsy0Oq9jyW9tQAI-15" vertex="1">
          <mxGeometry x="770" y="767" width="97.05" height="30" as="geometry" />
        </mxCell>
        <mxCell id="0F25xtsy0Oq9jyW9tQAI-71" value="&lt;font style=&quot;font-size: 15px;&quot;&gt;Try Again OR Forgot Password&lt;/font&gt;" style="rhombus;whiteSpace=wrap;html=1;fontSize=15;fillColor=#FFE599;fontStyle=1" parent="0F25xtsy0Oq9jyW9tQAI-15" vertex="1">
          <mxGeometry x="666.18" y="780" width="181.37" height="100" as="geometry" />
        </mxCell>
        <mxCell id="0F25xtsy0Oq9jyW9tQAI-72" value="" style="endArrow=classic;html=1;rounded=0;exitX=0.5;exitY=1;exitDx=0;exitDy=0;entryX=0.5;entryY=0;entryDx=0;entryDy=0;" parent="0F25xtsy0Oq9jyW9tQAI-15" source="0F25xtsy0Oq9jyW9tQAI-63" target="0F25xtsy0Oq9jyW9tQAI-71" edge="1">
          <mxGeometry width="50" height="50" relative="1" as="geometry">
            <mxPoint x="390" y="720" as="sourcePoint" />
            <mxPoint x="440" y="670" as="targetPoint" />
          </mxGeometry>
        </mxCell>
        <mxCell id="0F25xtsy0Oq9jyW9tQAI-147" value="Enter New Password" style="rounded=1;whiteSpace=wrap;html=1;fontSize=24;fillColor=#76608a;fontColor=#ffffff;strokeColor=#432D57;" parent="0F25xtsy0Oq9jyW9tQAI-15" vertex="1">
          <mxGeometry x="108.14999999999999" y="785.53" width="220.74" height="86.32" as="geometry" />
        </mxCell>
      </root>
    </mxGraphModel>
  </diagram>
</mxfile>
